<?xml version="1.0" encoding="utf-8"?>
<!-- Generator: Adobe Illustrator 18.0.0, SVG Export Plug-In . SVG Version: 6.00 Build 0)  -->
<!DOCTYPE svg PUBLIC "-//W3C//DTD SVG 1.1//EN" "http://www.w3.org/Graphics/SVG/1.1/DTD/svg11.dtd">
<svg version="1.1" id="Layer_1" xmlns="http://www.w3.org/2000/svg" xmlns:xlink="http://www.w3.org/1999/xlink" x="0px" y="0px"
	 width="40px" height="40px" viewBox="0 0 40 40" enable-background="new 0 0 40 40" xml:space="preserve">
<path fill="#FFFFFF" d="M20,40C9,40,0,31,0,20S9,0,20,0s20,9,20,20S31,40,20,40z M20,1.2C9.6,1.2,1.2,9.6,1.2,20S9.6,38.8,20,38.8
	S38.8,30.4,38.8,20S30.4,1.2,20,1.2z"/>
<path fill="#FFFFFF" d="M12,20.1l5.9,5.9c0.2,0.2,0.6,0.2,0.9,0c0.3-0.2,0.2-0.6,0-0.9l-4.9-4.9h13c0.3,0,0.6-0.3,0.6-0.6
	c0-0.3-0.3-0.6-0.6-0.6h-13l4.9-4.8c0.2-0.2,0.2-0.6,0-0.9c-0.1-0.1-0.3-0.2-0.4-0.2c-0.2,0-0.3,0.1-0.4,0.2l-5.9,5.9
	C11.8,19.5,11.8,19.9,12,20.1z"/>
</svg>
